<svg width="180" height="180" viewBox="0 0 180 180" fill="none" xmlns="http://www.w3.org/2000/svg">
<path d="M180 90C180 139.706 139.706 180 90 180C123.8 180 151.2 152.6 151.2 118.8C151.2 85.0002 123.8 57.6 90 57.6C56.2002 57.6 28.8 85.0002 28.8 118.8C28.8 152.6 56.2002 180 90 180C40.2944 180 0 139.706 0 90C0 40.2944 40.2944 0 90 0C139.706 0 180 40.2944 180 90Z" fill="url(#paint0_radial_1047_1234)"/>
<path d="M90 180C66.1413 180 46.8 160.659 46.8 136.8C46.8 112.941 66.1413 93.6 90 93.6C113.859 93.6 133.2 112.941 133.2 136.8C133.2 160.659 113.859 180 90 180Z" fill="url(#paint1_radial_1047_1234)"/>
<defs>
<radialGradient id="paint0_radial_1047_1234" cx="0" cy="0" r="1" gradientUnits="userSpaceOnUse" gradientTransform="translate(90 18.5) rotate(-90) scale(161.5)">
<stop stop-color="#78C9FF"/>
<stop offset="1" stop-color="#00FFF0"/>
</radialGradient>
<radialGradient id="paint1_radial_1047_1234" cx="0" cy="0" r="1" gradientUnits="userSpaceOnUse" gradientTransform="translate(90 18.5) rotate(-90) scale(161.5)">
<stop stop-color="#78C9FF"/>
<stop offset="1" stop-color="#00FFF0"/>
</radialGradient>
</defs>
</svg>
