<?xml version="1.0" encoding="UTF-8"?>
<svg id="Layer_1" xmlns="http://www.w3.org/2000/svg" version="1.1" viewBox="0 0 100.36 24.88">
  <!-- Generator: Adobe Illustrator 29.9.0, SVG Export Plug-In . SVG Version: 2.1.1 Build 6)  -->
  <defs>
    <style>
      .st0 {
        fill: #fff;
      }
    </style>
  </defs>
  <g>
    <path class="st0" d="M28.35,18.83h8.73v3.28h-13.24v-3l8.68-13.12h-8.68v-3.28h13.24v3l-8.73,13.12Z"/>
    <path class="st0" d="M55.27,2.7v3.14h-5.17v16.27h-3.89V5.84h-5.17v-3.14h14.24Z"/>
    <path class="st0" d="M69.78,22.11l-3.7-6.54c-.36-.63-1.03-1.03-1.76-1.03h-.66v7.56h-3.89V2.7h7.29c1.5,0,2.78.26,3.84.79,1.06.53,1.85,1.24,2.38,2.14.53.9.79,1.9.79,3.02,0,1.28-.37,2.43-1.11,3.46-.74,1.03-1.84,1.74-3.31,2.13l4.64,7.87h-4.5ZM63.66,11.63h3.25c1.06,0,1.84-.25,2.36-.76.52-.51.78-1.22.78-2.13s-.26-1.58-.78-2.07c-.52-.49-1.31-.74-2.36-.74h-3.25v5.7Z"/>
    <path class="st0" d="M91.16,18.41h-7.73l-1.28,3.7h-4.09l6.98-19.44h4.53l6.98,19.44h-4.12l-1.28-3.7ZM90.11,15.3l-2.81-8.12-2.81,8.12h5.62Z"/>
  </g>
  <polygon class="st0" points="14.67 2.67 10.14 2.67 3.16 22.11 7.24 22.11 12.39 7.18 17.53 22.11 21.65 22.11 14.67 2.67"/>
  <g>
    <path class="st0" d="M96.67,2.73h-3.58v4.72h3.58l1.41-2.36-1.41-2.36ZM96.55,7.22h-3.21V2.98h3.17s1.26,2.11,1.26,2.11l-1.22,2.13Z"/>
    <path class="st0" d="M96.14,4h-1.95v.58h.21v-.31h.5v1.65h-.5v-.38h-.21v.64h1.95l.65-1.09-.65-1.09ZM95.16,4.27h.17v1.65h-.17v-1.65ZM96.03,5.92h-.45v-1.65h.45l.49.82-.49.82Z"/>
  </g>
</svg>